<?xml version="1.0" encoding="UTF-8"?>
<svg width="47px" height="54px" viewBox="0 0 47 54" version="1.1" xmlns="http://www.w3.org/2000/svg" xmlns:xlink="http://www.w3.org/1999/xlink">
    <!-- Generator: Sketch 41 (35326) - http://www.bohemiancoding.com/sketch -->
    <title>android_icon</title>
    <desc>Created with Sketch.</desc>
    <defs></defs>
    <g id="The-Bit-Brewery" stroke="none" stroke-width="1" fill="none" fill-rule="evenodd">
        <g id="Desktop-HD" transform="translate(-625.000000, -773.000000)" fill="#FFFFFF">
            <g id="Page-1">
                <g id="Short" transform="translate(308.000000, 194.000000)">
                    <g id="icons" transform="translate(250.755297, 577.272491)">
                        <g id="android_icon" transform="translate(65.927512, 0.605426)">
                            <g id="Group">
                                <path d="M14.6116979,0.160091751 C14.349926,0.162590882 14.0782038,0.22577083 13.830649,0.363053207 C13.044504,0.79901695 12.7561741,1.8097279 13.191609,2.59562601 L14.96672,5.80241124 C10.6900634,8.44975163 7.85613248,12.9714897 7.85613248,18.132294 C7.85613248,18.153958 7.85607242,18.1865011 7.85613248,18.2185525 C7.85615362,18.2298626 7.85602696,18.2363091 7.85613248,18.2489954 C7.85613904,18.2658613 7.85613248,18.2904906 7.85613248,18.2946622 L7.85613248,19.0912841 C7.03476609,18.1458182 5.82736768,17.5487806 4.47834987,17.5487806 C2.00688737,17.5487806 0,19.556571 0,22.0291453 L0,35.8304954 C0,38.3030697 2.00688737,40.3108601 4.47834987,40.3108601 C5.82736768,40.3108601 7.03476609,39.7138225 7.85613248,38.7683566 L7.85613248,40.7015608 C7.85613248,43.3079475 9.98792759,45.4407009 12.593143,45.4407009 L13.7951467,45.4407009 L13.7951467,51.5802737 C13.7951467,54.0528592 15.8020357,56.0606383 18.2734978,56.0606383 C20.7449609,56.0606383 22.7518492,54.0528592 22.7518492,51.5802737 L22.7518492,45.4407009 L24.831266,45.4407009 L24.831266,51.5802737 C24.831266,54.0528592 26.8381542,56.0606383 29.3096173,56.0606383 C31.7810788,56.0606383 33.7879703,54.0528592 33.7879703,51.5802737 L33.7879703,45.4407009 L34.989973,45.4407009 C37.5951885,45.4407009 39.7269835,43.3079475 39.7269835,40.7015608 L39.7269835,38.7683566 C40.5483524,39.7138225 41.7557484,40.3108601 43.1047671,40.3108601 C45.5762301,40.3108601 47.5831184,38.3030697 47.5831184,35.8304954 L47.5831184,22.0291453 C47.5831184,19.556571 45.5762301,17.5487806 43.1047671,17.5487806 C41.7557484,17.5487806 40.5483524,18.1458182 39.7269835,19.0912841 L39.7269835,18.3098845 L39.7269835,18.2946654 C39.7270875,18.2702428 39.7270107,18.2459532 39.7269835,18.2490002 C39.7273038,18.2003633 39.7269835,18.1616092 39.7269835,18.1322972 C39.7269835,12.9723965 36.8867328,8.45502063 32.6113237,5.80748799 L34.3915081,2.59562121 C34.8269429,1.80972309 34.5386135,0.799012144 33.752468,0.363048402 C33.5049123,0.225766023 33.2331915,0.16258928 32.9714196,0.160086945 C32.3908778,0.154527981 31.8210646,0.460620231 31.5208986,1.0023757 L29.6595673,4.36645719 C27.8395415,3.69452103 25.8592586,3.32628051 23.7915585,3.32628051 C21.7259654,3.32628051 19.7420445,3.69075151 17.9235478,4.36138202 L16.0622166,1.0023757 C15.7620525,0.460618629 15.1922382,0.154540798 14.6116979,0.160086945 L14.6116979,0.160091751 L14.6116979,0.160091751 Z" id="Shape" fill-opacity="0"></path>
                                <path d="M4.4784554,18.7158057 C2.63414622,18.7158057 1.16660539,20.1840067 1.16660539,22.0291453 L1.16660539,35.8304954 C1.16660539,37.675634 2.63414622,39.143835 4.4784554,39.143835 C6.3227644,39.143835 7.79030533,37.675634 7.79030533,35.8304954 L7.79030533,22.0291453 C7.79030533,20.1840067 6.3227644,18.7158057 4.4784554,18.7158057 L4.4784554,18.7158057 L4.4784554,18.7158057 Z M43.1048728,18.7158057 C41.2605632,18.7158057 39.7930222,20.1840067 39.7930222,22.0291453 L39.7930222,35.8304954 C39.7930222,37.675634 41.2605632,39.143835 43.1048728,39.143835 C44.9491823,39.143835 46.4167218,37.675634 46.4167218,35.8304954 L46.4167218,22.0291453 C46.4167218,20.1840067 44.9491823,18.7158057 43.1048728,18.7158057 L43.1048728,18.7158057 L43.1048728,18.7158057 Z" id="Shape"></path>
                                <path d="M18.2734978,34.4655424 C16.4291883,34.4655424 14.9616482,35.9337432 14.9616482,37.7788818 L14.9616482,51.5802416 C14.9616482,53.4253851 16.4291883,54.8935603 18.2734978,54.8935603 C20.1178074,54.8935603 21.5853484,53.4253851 21.5853484,51.5802416 L21.5853484,37.7788818 C21.5853484,35.9337432 20.1178074,34.4655424 18.2734978,34.4655424 L18.2734978,34.4655424 L18.2734978,34.4655424 Z M29.3096173,34.4655424 C27.4653079,34.4655424 25.9977667,35.9337432 25.9977667,37.7788818 L25.9977667,51.5802416 C25.9977667,53.4253851 27.4653079,54.8935603 29.3096173,54.8935603 C31.1539268,54.8935603 32.6214663,53.4253851 32.6214663,51.5802416 L32.6214663,37.7788818 C32.6214663,35.9337432 31.1539268,34.4655424 29.3096173,34.4655424 L29.3096173,34.4655424 L29.3096173,34.4655424 Z" id="Shape"></path>
                                <path d="M14.6218414,1.32711852 C14.5435514,1.32791952 14.4705995,1.34812724 14.3986846,1.38800599 C14.1625245,1.51897166 14.0848643,1.79047017 14.2161017,2.02733489 L16.5491039,6.24385064 C12.060514,8.58043854 9.02871041,13.0208924 9.022634,18.1170718 L38.5604827,18.1170718 C38.5544139,13.0208924 35.5226029,8.58043854 31.0340113,6.24385064 L33.367016,2.02733489 C33.4982526,1.79047017 33.4205917,1.51897166 33.1844323,1.38800599 C33.112517,1.34812724 33.0395656,1.32786505 32.9612754,1.32711852 C32.7936766,1.32550049 32.6348131,1.40927904 32.5453908,1.57067162 L30.1819569,5.83285418 C28.2485741,4.97488338 26.0799863,4.4933121 23.7915585,4.4933121 C21.5031287,4.4933121 19.3345393,4.97488338 17.4011583,5.83285418 L15.0377244,1.57067162 C14.9483026,1.40927904 14.7894378,1.3255101 14.6218414,1.32711852 L14.6218414,1.32711852 L14.6218414,1.32711852 Z M9.022634,19.284097 L9.022634,40.7015608 C9.022634,42.6805118 10.6150811,44.273674 12.593143,44.273674 L34.989973,44.273674 C36.9680365,44.273674 38.5604827,42.6805118 38.5604827,40.7015608 L38.5604827,19.284097 L9.022634,19.284097 Z M16.9750911,10.2421827 C16.3007972,10.2421827 15.7426566,10.8005734 15.7426566,11.4751721 C15.7426566,12.1497692 16.3007972,12.7081599 16.9750911,12.7081599 C17.649385,12.7081599 18.2075248,12.1497692 18.2075248,11.4751721 C18.2075248,10.8005734 17.649385,10.2421827 16.9750911,10.2421827 Z M30.607944,10.2421827 C29.93365,10.2421827 29.3755087,10.8005734 29.3755087,11.4751721 C29.3755087,12.1497692 29.93365,12.7081599 30.607944,12.7081599 C31.2822364,12.7081599 31.8403776,12.1497692 31.8403776,11.4751721 C31.8403776,10.8005734 31.2822364,10.2421827 30.607944,10.2421827 Z" id="Combined-Shape"></path>
                            </g>
                        </g>
                    </g>
                </g>
            </g>
        </g>
    </g>
</svg>