<?xml version="1.0" encoding="UTF-8"?>
<svg width="46px" height="57px" viewBox="0 0 46 57" version="1.1" xmlns="http://www.w3.org/2000/svg" xmlns:xlink="http://www.w3.org/1999/xlink">
    <!-- Generator: Sketch 41 (35326) - http://www.bohemiancoding.com/sketch -->
    <title>apple_icon</title>
    <desc>Created with Sketch.</desc>
    <defs></defs>
    <g id="The-Bit-Brewery" stroke="none" stroke-width="1" fill="none" fill-rule="evenodd">
        <g id="Desktop-HD" transform="translate(-560.000000, -772.000000)" fill="#FFFFFF">
            <g id="Page-1">
                <g id="Short" transform="translate(308.000000, 194.000000)">
                    <g id="icons" transform="translate(250.755297, 577.272491)">
                        <g id="apple_icon" transform="translate(1.364336, 1.337203)">
                            <path d="M37.7781953,29.526961 C37.8562607,37.9377051 45.1533234,40.7365887 45.234165,40.7723129 C45.1724649,40.9697056 44.0682161,44.7609962 41.3897257,48.6771286 C39.0742886,52.0628234 36.6711703,55.4361159 32.8855488,55.5059796 C29.1657971,55.5745503 27.9696893,53.2991656 23.7169601,53.2991656 C19.4655154,53.2991656 18.1365853,55.4361102 14.615426,55.5745503 C10.9613409,55.712889 8.17879346,51.9133697 5.84411416,48.5400774 C1.07347974,41.6398942 -2.57227205,29.0417806 2.32305108,20.5378486 C4.75494318,16.3147613 9.10091817,13.6405262 13.8180855,13.5719504 C17.4063036,13.503474 20.7931551,15.9870692 22.9866783,15.9870692 C25.1788108,15.9870692 29.2945561,13.0003283 33.6212874,13.4389689 C35.4326049,13.5143916 40.517003,14.1709676 43.7818347,18.9519822 C43.5187698,19.115136 37.7151071,22.495271 37.7781953,29.526969 M30.787352,8.87389564 C32.7273303,6.52457336 34.0330475,3.2540995 33.6768337,0 C30.8805008,0.11243803 27.4991059,1.86423636 25.4933586,4.21226611 C23.6958237,6.2915558 22.1215873,9.61959157 22.5463435,12.8092854 C25.6631849,13.0505396 28.8472782,11.2247119 30.787352,8.87389946" id="Shape"></path>
                        </g>
                    </g>
                </g>
            </g>
        </g>
    </g>
</svg>