<?xml version="1.0" encoding="UTF-8"?>
<svg width="27px" height="26px" viewBox="0 0 27 26" version="1.1" xmlns="http://www.w3.org/2000/svg" xmlns:xlink="http://www.w3.org/1999/xlink">
    <!-- Generator: Sketch 41 (35326) - http://www.bohemiancoding.com/sketch -->
    <title>Linkedin_icon@3x</title>
    <desc>Created with Sketch.</desc>
    <defs></defs>
    <g id="The-Bit-Brewery" stroke="none" stroke-width="1" fill="none" fill-rule="evenodd">
        <g id="Desktop-HD" transform="translate(-754.000000, -940.000000)" fill="#FFFFFF">
            <g id="Page-1">
                <g id="social-icons" transform="translate(658.204086, 939.447880)">
                    <g id="Linkedin_icon" transform="translate(96.554752, 0.769789)">
                        <path d="M3.8934044,0.0552120329 C1.77248372,0.0552120329 0.0541051196,1.77436317 0.0541051196,3.89623738 L0.0541051196,21.6517776 C0.0541051196,23.7736518 1.77248372,25.4949681 3.8934044,25.4949681 L21.6420478,25.4949681 C23.7629685,25.4949681 25.4835113,23.7736518 25.4835113,21.6517776 L25.4835113,3.89623738 C25.4835113,1.77436317 23.7629685,0.0552120329 21.6420478,0.0552120329 L3.8934044,0.0552120329 L3.8934044,0.0552120329 Z M5.86283076,4.36391578 C7.17001044,4.36391578 7.97509462,5.22240876 7.99998298,6.35154896 C7.99998298,7.45578962 7.17001044,8.33918215 5.8379424,8.33918215 L5.81305405,8.33918215 C4.52968061,8.33918215 3.70079018,7.45578962 3.70079018,6.35154896 C3.70079018,5.22240876 4.55456896,4.36391578 5.86283076,4.36391578 L5.86283076,4.36391578 Z M17.1296809,9.63937139 C19.6401584,9.63937139 21.5338376,11.2805761 21.5338376,14.8098159 L21.5338376,21.4136081 L17.7140161,21.4136081 L17.7140161,15.2536773 C17.7140161,13.7055752 17.1513229,12.655464 15.7770529,12.655464 C14.7165925,12.655464 14.0889731,13.3591468 13.8076265,14.0520037 C13.7102373,14.3009991 13.6885952,14.6366017 13.6885952,14.9830301 L13.6885952,21.4136081 L9.86877381,21.4136081 C9.86877381,21.4136081 9.9120579,10.9882771 9.86877381,9.90568826 L13.6885952,9.90568826 L13.6885952,11.5295716 C14.1971834,10.7501076 15.1061494,9.63937139 17.1296809,9.63937139 L17.1296809,9.63937139 Z M3.92694958,9.90568826 L7.74785312,9.90568826 L7.74785312,21.4136081 L3.92694958,21.4136081 L3.92694958,9.90568826 L3.92694958,9.90568826 Z" id="Shape"></path>
                    </g>
                </g>
            </g>
        </g>
    </g>
</svg>
