<?xml version="1.0" encoding="UTF-8"?>
<svg width="50px" height="56px" viewBox="0 0 50 56" version="1.1" xmlns="http://www.w3.org/2000/svg" xmlns:xlink="http://www.w3.org/1999/xlink">
    <!-- Generator: Sketch 41 (35326) - http://www.bohemiancoding.com/sketch -->
    <title>nodejs_icon</title>
    <desc>Created with Sketch.</desc>
    <defs></defs>
    <g id="The-Bit-Brewery" stroke="none" stroke-width="1" fill="none" fill-rule="evenodd">
        <g id="Desktop-HD" transform="translate(-689.000000, -772.000000)" fill="#FFFFFF">
            <g id="Page-1">
                <g id="Short" transform="translate(308.000000, 194.000000)">
                    <g id="icons" transform="translate(250.755297, 577.272491)">
                        <g id="nodejs_icon" transform="translate(130.563506, 0.605426)">
                            <path d="M24.8358245,55.3138128 C24.0836885,55.3138128 23.3816949,55.1131543 22.7298436,54.7620025 L16.0609046,50.7990028 C15.0580564,50.2471927 15.5594807,50.0465344 15.8603348,49.9462053 C17.2141797,49.4947247 17.4648917,49.3943952 18.8688792,48.5917623 C19.019306,48.4914333 19.2198758,48.541598 19.3703031,48.6419269 L24.4848278,51.7019647 C24.6853977,51.8022939 24.9361095,51.8022939 25.0865369,51.7019647 L45.0933544,40.1139534 C45.2939243,40.0136239 45.3942089,39.8129659 45.3942089,39.5621431 L45.3942089,16.4362845 C45.3942089,16.1854614 45.2939243,15.9848034 45.0933544,15.8844744 L25.0865369,4.34662722 C24.885967,4.24629823 24.6352552,4.24629823 24.4848278,4.34662722 L4.47800985,15.8844744 C4.27744046,15.9848034 4.17715575,16.2356261 4.17715575,16.4362845 L4.17715575,39.5621431 C4.17715575,39.7628013 4.27744046,40.0136239 4.47800985,40.1139534 L9.94353166,43.2743202 C12.9019334,44.7792564 14.7572023,43.0234974 14.7572023,41.2677379 L14.7572023,18.4428663 C14.7572023,18.1418793 15.0079142,17.8408919 15.3589109,17.8408919 L17.9161735,17.8408919 C18.217028,17.8408919 18.5178821,18.0917146 18.5178821,18.4428663 L18.5178821,41.2677379 C18.5178821,45.2307376 16.3617592,47.5383067 12.6010789,47.5383067 C11.4478038,47.5383067 10.5452407,47.5383067 7.98797813,46.2841931 L2.72302615,43.2743202 C1.41932379,42.5218516 0.617045351,41.1172443 0.617045351,39.6123074 L0.617045351,16.4864488 C0.617045351,14.9815125 1.41932379,13.5769048 2.72302615,12.8244366 L22.7298436,1.23642475 C23.9834039,0.534121315 25.6882455,0.534121315 26.9418057,1.23642475 L46.9486232,12.8244366 C48.2523255,13.5769048 49.054604,14.9815125 49.054604,16.4864488 L49.054604,39.6123074 C49.054604,41.1172443 48.2523255,42.5218516 46.9486232,43.2743202 L26.9418057,54.8623315 C26.2899541,55.163319 25.5378183,55.3138128 24.8358245,55.3138128 L24.8358245,55.3138128 L24.8358245,55.3138128 Z M31.00334,39.4116495 C22.2284197,39.4116495 20.4232935,35.3984851 20.4232935,31.9872956 C20.4232935,31.6863083 20.6740055,31.3853212 21.025002,31.3853212 L23.6324072,31.3853212 C23.9332614,31.3853212 24.1839732,31.5859791 24.1839732,31.8869666 C24.5851124,34.5456879 25.738388,35.8499663 31.0534822,35.8499663 C35.2654441,35.8499663 37.0705704,34.8968397 37.0705704,32.6394348 C37.0705704,31.3351565 36.5691465,30.38203 30.0004917,29.7298907 C24.5349703,29.1780806 21.1252873,27.9741312 21.1252873,23.6098153 C21.1252873,19.5464866 24.5349703,17.138588 30.2512041,17.138588 C36.6694311,17.138588 39.8284023,19.3458286 40.2295416,24.1616254 C40.2295416,24.3121191 40.179399,24.4626129 40.0791144,24.6131065 C39.9788297,24.7134355 39.8284023,24.8137645 39.6779751,24.8137645 L37.0705704,24.8137645 C36.8198585,24.8137645 36.5691465,24.6131065 36.5190039,24.3622837 C35.9172954,21.6032334 34.3628806,20.7002712 30.2512041,20.7002712 C25.638103,20.7002712 25.0865369,22.305537 25.0865369,23.5094862 C25.0865369,24.9642583 25.738388,25.4157394 31.9560457,26.2183724 C38.1235609,27.0210051 41.03182,28.1747897 41.03182,32.488941 C40.9816775,36.9034218 37.3714249,39.4116495 31.00334,39.4116495 L31.00334,39.4116495 L31.00334,39.4116495 Z" id="Shape"></path>
                        </g>
                    </g>
                </g>
            </g>
        </g>
    </g>
</svg>