<?xml version="1.0" encoding="UTF-8"?>
<svg width="54px" height="50px" viewBox="0 0 54 50" version="1.1" xmlns="http://www.w3.org/2000/svg" xmlns:xlink="http://www.w3.org/1999/xlink">
    <!-- Generator: Sketch 41 (35326) - http://www.bohemiancoding.com/sketch -->
    <title>sketchapp_icon</title>
    <desc>Created with Sketch.</desc>
    <defs></defs>
    <g id="The-Bit-Brewery" stroke="none" stroke-width="1" fill="none" fill-rule="evenodd">
        <g id="Desktop-HD" transform="translate(-757.000000, -778.000000)" fill="#FFFFFF">
            <g id="Page-1">
                <g id="Short" transform="translate(308.000000, 194.000000)">
                    <g id="icons" transform="translate(250.755297, 577.272491)">
                        <g id="sketchapp_icon" transform="translate(198.197735, 7.191420)">
                            <path d="M17.1199766,-1.13686838e-13 L7.55413837,4.06628217 L0,12.897097 L26.6858149,49.2882687 L53.3716298,12.897097 L45.8174914,4.06628217 L36.2516531,-1.13686838e-13 L17.1199766,-1.13686838e-13 L17.1199766,-1.13686838e-13 Z M17.4278899,1.80723652 L35.8205746,1.80723652 L43.2515477,4.96990043 L35.1021103,9.0361826 L18.1874092,9.0361826 L10.0174444,4.96990043 L17.4073623,1.80723652 L17.4278899,1.80723652 Z M8.10838221,6.0583497 L16.5246777,10.1657054 L11.947034,20.3930212 L2.19644784,12.9997809 L8.10838221,6.0583497 L8.10838221,6.0583497 Z M45.1195547,6.0583497 L51.0109615,12.9792441 L41.2809029,20.3724844 L36.7032592,10.1657054 L45.1195547,6.0583497 L45.1195547,6.0583497 Z M18.1668817,10.8434191 L35.0815828,10.8434191 L39.5155336,20.8037568 L13.7534584,20.8037568 L18.1874092,10.8434191 L18.1668817,10.8434191 Z M5.95298947,18.0723652 L11.5570106,22.3440152 L18.6800704,35.4054064 L5.95298947,18.0723652 L5.95298947,18.0723652 Z M47.3160025,18.0723652 L34.5889216,35.4054064 L41.7119814,22.3440152 L47.3160025,18.092902 L47.3160025,18.0723652 Z M13.7534584,22.5904565 L39.5360611,22.5904565 L26.6447598,46.2488255 L13.7124033,22.6315301 L13.7534584,22.5904565 Z" id="Shape"></path>
                        </g>
                    </g>
                </g>
            </g>
        </g>
    </g>
</svg>