<?xml version="1.0" encoding="UTF-8"?>
<svg width="31px" height="26px" viewBox="0 0 31 26" version="1.1" xmlns="http://www.w3.org/2000/svg" xmlns:xlink="http://www.w3.org/1999/xlink">
    <!-- Generator: Sketch 41 (35326) - http://www.bohemiancoding.com/sketch -->
    <title>Shape</title>
    <desc>Created with Sketch.</desc>
    <defs></defs>
    <g id="The-Bit-Brewery" stroke="none" stroke-width="1" fill="none" fill-rule="evenodd">
        <g id="Desktop-HD" transform="translate(-658.000000, -941.000000)" fill="#FFFFFF">
            <g id="Page-1">
                <g id="social-icons" transform="translate(658.204086, 939.447880)">
                    <g id="twitter" transform="translate(0.021202, 1.544053)">
                        <path d="M30.1414514,3.66499734 C29.0150021,4.16397148 27.8202794,4.4915516 26.5969466,4.63686252 C27.8692837,3.87196508 28.8480046,2.66318137 29.3085791,1.22074299 C28.0972247,1.93989673 26.7718925,2.44656747 25.3898575,2.71885914 C24.2234547,1.47266222 22.5923095,0.766789558 20.8858224,0.769753006 C17.4791062,0.769753006 14.7141238,3.53329061 14.7141238,6.94230642 C14.7141238,7.42670307 14.7686251,7.89881221 14.8753248,8.3496102 C9.74567604,8.0917645 5.19942163,5.63522264 2.155024,1.89981986 C1.62344423,2.81043948 1.32023267,3.87196508 1.32023267,5.00356787 C1.32023267,7.14428235 2.40929952,9.03406286 4.06487304,10.1412826 C3.08466704,10.1112266 2.12596059,9.84642353 1.26918566,9.36908947 L1.26918566,9.44780633 C1.26918566,12.4378949 3.39665616,14.9330272 6.21844277,15.5013245 C5.30964495,15.747505 4.35677549,15.7836148 3.43196688,15.6069203 C4.21763026,18.0598143 6.49747418,19.844191 9.19682472,19.8960289 C7.08509051,21.5490829 4.42450499,22.5378434 1.53248076,22.5378434 C1.04071929,22.5372805 0.549396825,22.508434 0.0609451442,22.4514468 C2.79176828,24.2024169 6.03632393,25.225736 9.52114595,25.225736 C20.872389,25.225736 27.0786308,15.8173439 27.0786308,7.65843781 C27.0786308,7.39156847 27.0786308,7.12469913 27.0594402,6.85974972 C28.2670692,5.98563378 29.3099554,4.90392488 30.1395323,3.66499734 L30.1414514,3.66499734 Z" id="Shape"></path>
                    </g>
                </g>
            </g>
        </g>
    </g>
</svg>