<svg width="47" height="54" xmlns="http://www.w3.org/2000/svg"><g fill="#FFF" fill-rule="evenodd"><path d="M14.295-.962a1.644 1.644 0 0 0-.782.203 1.653 1.653 0 0 0-.639 2.233L14.65 4.68c-4.277 2.648-7.111 7.17-7.111 12.33v.96a4.46 4.46 0 0 0-3.378-1.542 4.482 4.482 0 0 0-4.478 4.48v13.801a4.482 4.482 0 0 0 4.478 4.48 4.46 4.46 0 0 0 3.378-1.542v1.933c0 2.607 2.132 4.74 4.737 4.74h1.202v6.14a4.482 4.482 0 0 0 4.478 4.48 4.482 4.482 0 0 0 4.479-4.48v-6.14h2.08v6.14a4.482 4.482 0 0 0 4.477 4.48 4.482 4.482 0 0 0 4.479-4.48v-6.14h1.202c2.605 0 4.737-2.133 4.737-4.74v-1.933a4.46 4.46 0 0 0 3.378 1.543 4.482 4.482 0 0 0 4.478-4.48V20.906a4.482 4.482 0 0 0-4.478-4.48 4.46 4.46 0 0 0-3.378 1.542v-.959c0-5.16-2.84-9.677-7.116-12.325l1.78-3.211a1.653 1.653 0 0 0-.639-2.233 1.65 1.65 0 0 0-2.231.639l-1.862 3.364a16.92 16.92 0 0 0-5.868-1.04c-2.065 0-4.05.365-5.868 1.035L15.745-.12c-.3-.541-.87-.848-1.45-.842z" fill="none"/><path d="M4.161 17.594A3.293 3.293 0 0 0 .85 20.907v13.801a3.293 3.293 0 0 0 3.312 3.314 3.293 3.293 0 0 0 3.312-3.314v-13.8a3.293 3.293 0 0 0-3.312-3.314zm38.627 0a3.293 3.293 0 0 0-3.312 3.313v13.801a3.293 3.293 0 0 0 3.312 3.314 3.293 3.293 0 0 0 3.312-3.314v-13.8a3.293 3.293 0 0 0-3.312-3.314zM17.956 33.343a3.293 3.293 0 0 0-3.312 3.314v13.801a3.293 3.293 0 0 0 3.312 3.313 3.293 3.293 0 0 0 3.312-3.313V36.657a3.293 3.293 0 0 0-3.312-3.314zm11.036 0a3.293 3.293 0 0 0-3.311 3.314v13.801a3.293 3.293 0 0 0 3.311 3.313 3.293 3.293 0 0 0 3.312-3.313V36.657a3.293 3.293 0 0 0-3.312-3.314z"/><path d="M14.305.205a.46.46 0 0 0-.224.06.457.457 0 0 0-.182.64l2.333 4.217c-4.489 2.336-7.52 6.777-7.527 11.873h29.538c-.006-5.096-3.038-9.537-7.526-11.873L33.05.905a.457.457 0 0 0-.183-.64.463.463 0 0 0-.639.183l-2.363 4.263a15.737 15.737 0 0 0-6.39-1.34c-2.29 0-4.458.482-6.391 1.34L14.721.449a.463.463 0 0 0-.416-.244zm-5.6 17.957v21.417a3.563 3.563 0 0 0 3.571 3.573h22.397a3.563 3.563 0 0 0 3.57-3.573V18.162H8.705zm7.953-9.042a1.24 1.24 0 0 0-1.233 1.233 1.24 1.24 0 0 0 1.233 1.233 1.24 1.24 0 0 0 1.232-1.233 1.24 1.24 0 0 0-1.232-1.233zm13.633 0c-.675 0-1.233.558-1.233 1.233s.558 1.233 1.233 1.233a1.24 1.24 0 0 0 1.232-1.233 1.24 1.24 0 0 0-1.232-1.233z"/></g></svg>