<svg width="46" height="57" xmlns="http://www.w3.org/2000/svg"><path d="M37.898 30.137c.078 8.41 7.375 11.21 7.456 11.245-.062.197-1.166 3.989-3.845 7.905-2.315 3.386-4.718 6.759-8.504 6.829-3.72.068-4.916-2.207-9.168-2.207-4.252 0-5.58 2.137-9.102 2.275-3.654.139-6.437-3.66-8.771-7.034-4.77-6.9-8.417-19.499-3.521-28.002 2.432-4.224 6.778-6.898 11.495-6.966 3.588-.069 6.975 2.415 9.168 2.415 2.192 0 6.308-2.987 10.635-2.548 1.811.075 6.896.732 10.16 5.513-.263.163-6.066 3.543-6.003 10.575M30.907 9.484c1.94-2.35 3.246-5.62 2.89-8.874-2.797.112-6.178 1.864-8.184 4.212-1.798 2.08-3.372 5.407-2.947 8.597 3.117.241 6.3-1.585 8.241-3.935" fill="#FFF" fill-rule="evenodd"/></svg>