<svg width="27" height="27" xmlns="http://www.w3.org/2000/svg"><g fill="none" fill-rule="evenodd"><path d="M13.554 1.08c6.697 0 12.116 5.422 12.116 12.112s-5.419 12.122-12.116 12.122c-6.698 0-12.117-5.421-12.117-12.111S6.857 1.08 13.554 1.08z"/><path d="M13.554 26.177C6.39 26.177.564 20.36.564 13.203.565 6.035 6.39.218 13.555.218c7.164 0 12.99 5.817 12.99 12.974 0 7.158-5.826 12.985-12.99 12.985zm10.95-11.208c-.376-.122-3.43-1.025-6.911-.477 1.45 3.98 2.04 7.228 2.151 7.898a11.02 11.02 0 0 0 4.76-7.421zm-6.617 8.447c-.162-.975-.812-4.366-2.364-8.406a.19.19 0 0 1-.071.02c-6.262 2.183-8.504 6.518-8.707 6.924a11.048 11.048 0 0 0 6.809 2.335c1.532.01 3.004-.305 4.333-.873zM5.314 20.624c.254-.427 3.298-5.462 9.021-7.32.142-.05.295-.091.437-.132a28.89 28.89 0 0 0-.903-1.878c-5.541 1.655-10.92 1.584-11.407 1.573 0 .112-.01.224-.01.336a11.096 11.096 0 0 0 2.862 7.42zm-2.618-9.685c.497.01 5.064.03 10.26-1.35-1.838-3.27-3.827-6.01-4.11-6.407a11.116 11.116 0 0 0-6.15 7.757zm8.26-8.508a58.37 58.37 0 0 1 4.14 6.487c3.948-1.482 5.612-3.716 5.815-4a11.058 11.058 0 0 0-7.357-2.792c-.893 0-1.766.112-2.598.305zM22.14 6.197c-.233.315-2.09 2.7-6.19 4.376.253.528.507 1.066.74 1.604.082.193.163.386.244.569 3.694-.467 7.357.284 7.723.355a11.044 11.044 0 0 0-2.517-6.904z" fill="#FFF"/></g></svg>