<svg width="27" height="26" xmlns="http://www.w3.org/2000/svg"><path d="M4.652.273a3.84 3.84 0 0 0-3.84 3.84V21.87a3.841 3.841 0 0 0 3.84 3.844h17.749a3.843 3.843 0 0 0 3.841-3.844V4.114A3.841 3.841 0 0 0 22.401.273H4.652zm1.97 4.309c1.307 0 2.112.858 2.137 1.987 0 1.104-.83 1.988-2.162 1.988h-.025c-1.283 0-2.112-.884-2.112-1.988 0-1.129.853-1.987 2.162-1.987zm11.267 5.275c2.51 0 4.404 1.641 4.404 5.17v6.604h-3.82v-6.16c0-1.548-.563-2.598-1.937-2.598-1.06 0-1.688.704-1.97 1.397-.097.249-.119.584-.119.93v6.431h-3.82s.044-10.425 0-11.508h3.82v1.624c.509-.78 1.418-1.89 3.442-1.89zm-13.203.266h3.82v11.508h-3.82V10.123z" fill="#FFF" fill-rule="evenodd"/></svg>