<svg width="50" height="56" xmlns="http://www.w3.org/2000/svg"><path d="M25.155 55.192c-.753 0-1.455-.2-2.106-.552l-6.67-3.963c-1.002-.552-.5-.753-.2-.853 1.354-.451 1.605-.552 3.009-1.354.15-.1.35-.05.501.05l5.115 3.06c.2.1.45.1.601 0l20.007-11.588c.2-.1.301-.301.301-.552V16.314c0-.25-.1-.451-.3-.552L25.404 4.225c-.2-.1-.45-.1-.601 0L4.797 15.762c-.2.1-.301.352-.301.552V39.44c0 .2.1.452.3.552l5.466 3.16c2.959 1.505 4.814-.25 4.814-2.006V18.32a.61.61 0 0 1 .602-.602h2.557c.3 0 .602.25.602.602v22.825c0 3.963-2.156 6.27-5.917 6.27-1.153 0-2.056 0-4.613-1.254l-5.265-3.01A4.234 4.234 0 0 1 .936 39.49V16.364c0-1.505.802-2.91 2.106-3.662L23.049 1.114c1.253-.702 2.958-.702 4.212 0l20.006 11.588a4.234 4.234 0 0 1 2.106 3.662V39.49c0 1.505-.802 2.91-2.106 3.662L27.261 54.74a5.13 5.13 0 0 1-2.106.452zm6.167-15.902c-8.775 0-10.58-4.014-10.58-7.425a.61.61 0 0 1 .602-.602h2.607c.301 0 .552.2.552.502.4 2.659 1.554 3.963 6.87 3.963 4.211 0 6.016-.953 6.016-3.21 0-1.305-.501-2.258-7.07-2.91-5.465-.552-8.875-1.756-8.875-6.12 0-4.064 3.41-6.471 9.126-6.471 6.418 0 9.577 2.207 9.978 7.023a.81.81 0 0 1-.15.451c-.1.1-.25.2-.401.2h-2.608c-.25 0-.501-.2-.551-.45-.602-2.76-2.156-3.663-6.268-3.663-4.613 0-5.165 1.605-5.165 2.81 0 1.454.652 1.906 6.87 2.708 6.167.803 9.076 1.957 9.076 6.27-.05 4.415-3.66 6.924-10.029 6.924z" fill="#FFF" fill-rule="evenodd"/></svg>