<svg width="54" height="50" xmlns="http://www.w3.org/2000/svg"><path d="M17.073.464L7.507 4.53l-7.554 8.831 26.686 36.391 26.686-36.391-7.554-8.83L36.205.463H17.073zm.308 1.807h18.393l7.43 3.163L35.056 9.5H18.14L9.97 5.434l7.39-3.163h.02zM8.06 6.522l8.417 4.108L11.9 20.857l-9.75-7.393 5.91-6.942zm37.012 0l5.891 6.921-9.73 7.393-4.578-10.206 8.417-4.108zM18.12 11.307h16.915l4.434 9.96H13.706l4.434-9.96h-.02zm-12.214 7.23l5.604 4.27 7.123 13.062L5.906 18.536zm41.363 0L34.542 35.868l7.123-13.061 5.604-4.251v-.02zm-33.563 4.517H39.49L26.598 46.713 13.665 23.095l.041-.04z" fill="#FFF" fill-rule="evenodd"/></svg>