<svg width="31" height="26" xmlns="http://www.w3.org/2000/svg"><path d="M30.367 3.657a12.348 12.348 0 0 1-3.545.972 6.197 6.197 0 0 0 2.712-3.416 12.355 12.355 0 0 1-3.919 1.498A6.173 6.173 0 0 0 15.1 8.34 17.518 17.518 0 0 1 2.38 1.89a6.138 6.138 0 0 0-.834 3.105c0 2.14 1.089 4.03 2.744 5.137a6.13 6.13 0 0 1-2.796-.772v.079a6.179 6.179 0 0 0 4.95 6.053 6.204 6.204 0 0 1-2.787.106 6.183 6.183 0 0 0 5.765 4.289 12.393 12.393 0 0 1-7.664 2.642c-.492 0-.983-.03-1.472-.087a17.47 17.47 0 0 0 9.46 2.775c11.352 0 17.558-9.409 17.558-17.568 0-.266 0-.533-.02-.798a12.594 12.594 0 0 0 3.08-3.195h.003z" fill="#FFF" fill-rule="evenodd"/></svg>